<?xml version="1.0"?>
<svg version="1.1" xmlns="http://www.w3.org/2000/svg" xmlns:xlink="http://www.w3.org/1999/xlink" width="700" height="600">
    <desc iVinci="yes" version="4.4" gridStep="20" showGrid="no" snapToGrid="no" codePlatform="0"/>
    <g id="Layer1" visibility="hidden">
        <g id="Shape1">
            <desc type="0" basicInfo-basicType="0" basicInfo-roundedRectRadius="12" basicInfo-polygonSides="6" basicInfo-starPoints="5" bounding="rect(-807.972,-799.082,1615.95,1598.16)" text="" font-familyName="" font-pixelSize="20" font-bold="0" font-underline="0" font-alignment="1" strokeStyle="0" markerStart="0" markerEnd="0" shadowEnabled="0" shadowOffsetX="0" shadowOffsetY="2" shadowBlur="4" shadowOpacity="160" blurEnabled="0" blurRadius="4" transform="matrix(0.375521,0,0,0.362361,350,300)" pers-center="0,0" pers-size="0,0" pers-start="0,0" pers-end="0,0" locked="0" mesh="" flag="Trace_1"/>
            <path id="shapePath1" d="M46.7354,447.415 C49.792,395.412 87.5041,349.433 133.296,332.536 C136.316,330.995 140.352,330.254 143.9,328.595 C146.656,270.78 177.926,217.133 221.173,184.337 C221.409,183.993 221.197,183.605 221.173,183.244 C211.386,154.511 213.232,120.226 225.474,92.3482 C238.6,63.049 261.618,39.5555 288.76,25.9742 C297.77,21.2681 306.106,18.0536 315.799,15.4692 C330.126,11.4043 345.266,9.9747 360.478,10.5757 C412.835,13.1559 458.804,45.8893 478.975,89.0811 C493.101,119.475 495.241,156.084 483.202,187.932 C483.029,188.285 482.968,188.729 483.185,189.082 C523.772,222.432 550.545,271.044 554.46,326.747 C554.507,327.417 554.525,328.093 554.974,328.578 C619.204,346.994 662.367,409.484 651.828,476.388 C641.943,535.923 592.184,581.675 531.337,588.55 C485.601,594.395 437.263,574.216 410.391,542.374 C407.105,538.917 404.299,534.986 401.483,531.38 C367.995,539.69 332.135,540.056 298.551,531.66 C296.806,533.086 295.874,535.192 294.264,536.822 C262.941,577.707 204.803,598.972 150.205,585.222 C137.764,582.067 125.916,577.172 114.968,571.17 C69.5145,543.863 44.4278,500.747 46.7354,447.415 M53.0102,442.337 L52.7515,456.103 C51.0024,504.701 83.8743,551.3 124.21,569.684 C132.779,574.396 142.361,577.406 152.074,580.024 C176.696,585.608 204.035,584.886 227.954,576.862 L227.928,576.407 C229.989,576.698 231.957,575.156 233.973,574.716 L233.936,574.232 C234.267,574.495 234.72,574.432 235.08,574.29 C251.56,567.77 268.177,557.039 278.755,545.73 C284.985,540.382 291.082,532.525 295.88,525.659 L295.898,526.023 C300.182,526.596 304.442,527.22 308.664,528.223 C308.708,528.02 308.495,527.568 309.04,527.85 L309.037,528.249 C331.581,532.734 354.148,533.038 377.009,530.38 L377.01,530.024 C378.771,530.456 380.111,529.61 381.891,529.656 L381.891,529.3 C389.243,528.603 396.523,527.113 403.903,525.036 C413.373,539.237 424.72,550.451 437.816,559.791 C438.034,559.846 438.242,559.953 438.48,559.876 C446.474,566.013 454.94,569.928 464.447,574.038 C464.726,574.025 465.023,574.101 465.257,573.87 L465.224,574.34 C469.067,575.492 472.848,577.589 476.898,577.856 L476.883,578.293 C480.628,579.124 484.764,580.795 488.539,580.755 L488.539,581.119 C490.628,581.093 492.51,582.328 494.923,581.842 L494.923,582.202 C496.671,582.222 498.479,583.027 500.181,582.567 C500.847,583.266 503.099,583.142 504.311,582.929 C504.353,583.13 504.146,583.566 504.687,583.295 C504.729,583.093 504.519,582.647 505.062,582.929 L505.062,583.29 C506.686,583.358 508.376,583.682 509.944,583.291 C510.184,584.06 512.256,583.633 512.573,583.291 L512.573,583.653 L518.957,583.653 L518.957,583.291 C519.165,583.331 519.625,583.13 519.332,583.655 C521.392,583.246 524.221,583.502 526.842,583.287 L526.843,582.929 C527.779,583.394 528.853,582.905 529.847,582.931 L529.847,582.567 C530.661,582.141 529.784,583.364 530.598,582.924 L530.598,582.567 C539.997,582.245 549.293,579.606 558.411,576.857 L558.386,576.407 C558.646,576.49 558.88,576.698 559.182,576.572 C560.298,575.978 562.269,575.938 562.517,574.957 C562.849,575.233 563.295,575.135 563.661,575.017 C588.105,565.589 606.355,550.825 620.008,534.394 C620.076,534.19 620.208,533.997 620.11,533.765 C626.584,526.719 632.034,516.853 636.291,507.968 C636.28,507.701 636.366,507.418 636.119,507.196 L636.619,507.232 C637.347,504.446 639.443,501.988 639.499,498.861 L639.967,498.885 C640.544,496.304 642.257,493.712 642.127,490.889 L642.552,490.899 C642.511,489.94 643.404,489.338 642.878,488.353 L643.268,488.355 C643.339,487.391 644.13,486.39 643.63,485.454 C644.367,484.934 644.639,483.274 644.381,482.193 C645.343,481.686 644.996,479.66 645.516,478.57 C645.305,478.527 644.84,478.733 645.132,478.207 L645.533,478.21 L646.63,471.684 C647.432,459.527 647.847,445.734 645.532,433.997 L645.132,433.999 C645.218,433.385 645.616,431.875 644.756,431.824 C645.229,430.362 644.276,429.95 644.423,428.559 L644.005,428.563 C644.444,428.008 644.007,427.351 644.015,426.751 L643.63,426.751 C643.887,426.382 643.927,425.118 643.254,425.302 C643.752,423.868 642.582,422.619 642.559,421.308 L642.127,421.316 C642.538,420.868 642.165,420.348 642.167,419.859 C641.534,419.581 642.044,417.556 641.001,417.692 C641.392,417.245 641.077,416.721 641,416.243 C634.35,395.844 619.602,373.822 602.818,360.668 C587.542,346.794 570.43,338.585 548.321,332.403 C548.931,329.721 548.483,326.933 548.629,324.203 C547.954,319.914 547.772,315.617 546.928,311.865 C540.433,263.673 513.221,219.225 476.314,190.416 C477.659,185.538 480.411,180.7 480.653,175.635 L481.079,175.644 L483.291,165.852 C483.081,165.81 482.613,166.015 482.907,165.489 L483.303,165.492 C483.544,163.219 484.411,160.849 484.033,158.604 L484.402,158.604 C485.674,146.414 485.492,134.027 483.305,122.004 L482.907,122.006 C482.947,121.8 482.74,121.355 483.293,121.643 C472.935,65.0624 424.606,20.8332 362.373,16.3818 C359.08,16.4594 355.837,16.1904 352.601,16.3809 C307.064,15.2231 262.41,41.1848 241.284,75.5413 C235.32,83.9186 230.414,94.0912 227.37,104.227 C221.751,119.593 219.868,136.646 221.156,153.17 C221.775,164.525 224.555,175.686 228.124,186.466 C225.402,187.993 223.202,189.97 220.708,191.462 C210.357,199.908 200.717,209.192 193.234,219.011 C188.8,223.755 184.734,229.364 181.577,234.616 C163.002,260.377 152.193,294.883 149.477,328.19 C149.49,329.709 149.248,331.304 149.74,332.761 C96.4716,347.322 59.1041,389.871 53.0102,442.337 " style="stroke:none;fill-rule:evenodd;fill:#f7656a;fill-opacity:1;"/>
        </g>
    </g>
    <g id="Layer2" visibility="hidden">
        <g id="Shape2">
            <desc type="0" basicInfo-basicType="0" basicInfo-roundedRectRadius="12" basicInfo-polygonSides="6" basicInfo-starPoints="5" bounding="rect(-807.972,-799.082,1615.95,1598.16)" text="" font-familyName="" font-pixelSize="20" font-bold="0" font-underline="0" font-alignment="1" strokeStyle="0" markerStart="0" markerEnd="0" shadowEnabled="0" shadowOffsetX="0" shadowOffsetY="2" shadowBlur="4" shadowOpacity="160" blurEnabled="0" blurRadius="4" transform="matrix(0.375521,0,0,0.362361,350,300)" pers-center="0,0" pers-size="0,0" pers-start="0,0" pers-end="0,0" locked="0" mesh="" flag="Trace_1"/>
            <path id="shapePath2" d="M46.7354,447.415 C49.792,395.412 87.5041,349.433 133.296,332.536 C136.316,330.995 140.352,330.254 143.9,328.595 C145.141,302.567 152.161,277.384 163.451,254.567 C177.239,226.703 197.396,202.368 221.173,184.337 C221.409,183.993 221.197,183.605 221.173,183.244 C211.386,154.511 213.232,120.226 225.474,92.3482 C238.6,63.049 261.618,39.5555 288.76,25.9742 C297.77,21.2681 306.106,18.0536 315.799,15.4692 C330.126,11.4043 345.266,9.9747 360.478,10.5757 C412.835,13.1559 458.804,45.8893 478.975,89.0811 C493.101,119.475 495.241,156.084 483.202,187.932 C483.029,188.285 482.968,188.729 483.185,189.082 C506.491,208.232 525.242,232.415 537.726,260.082 C542.137,269.859 545.766,280.071 548.537,290.65 C551.58,302.27 553.588,314.332 554.46,326.747 C554.507,327.417 554.525,328.093 554.974,328.578 C619.204,346.994 662.367,409.484 651.828,476.388 C641.943,535.923 592.184,581.675 531.337,588.55 C485.601,594.395 437.263,574.216 410.391,542.374 C407.105,538.917 404.299,534.986 401.483,531.38 C367.995,539.69 332.135,540.056 298.551,531.66 C296.806,533.086 295.874,535.192 294.264,536.822 C262.941,577.707 204.803,598.972 150.205,585.222 C137.764,582.067 125.916,577.172 114.968,571.17 C69.5145,543.863 44.4278,500.747 46.7354,447.415 M53.0102,442.337 L52.7515,456.103 C51.0024,504.701 83.8743,551.3 124.21,569.684 C132.779,574.396 142.361,577.406 152.074,580.024 C176.696,585.608 204.035,584.886 227.954,576.862 L227.928,576.407 C229.989,576.698 231.957,575.156 233.973,574.716 L233.936,574.232 C234.267,574.495 234.72,574.432 235.08,574.29 C251.56,567.77 268.177,557.039 278.755,545.73 C284.985,540.382 291.082,532.525 295.88,525.659 L295.898,526.023 C300.182,526.596 304.442,527.22 308.664,528.223 C308.708,528.02 308.495,527.568 309.04,527.85 L309.037,528.249 C331.581,532.734 354.148,533.038 377.009,530.38 L377.01,530.024 C378.771,530.456 380.111,529.61 381.891,529.656 L381.891,529.3 C389.243,528.603 396.523,527.113 403.903,525.036 C413.373,539.237 424.72,550.451 437.816,559.791 C438.034,559.846 438.242,559.953 438.48,559.876 C446.474,566.013 454.94,569.928 464.447,574.038 C464.726,574.025 465.023,574.101 465.257,573.87 L465.224,574.34 C469.067,575.492 472.848,577.589 476.898,577.856 L476.883,578.293 C480.628,579.124 484.764,580.795 488.539,580.755 L488.539,581.119 C490.628,581.093 492.51,582.328 494.923,581.842 L494.923,582.202 C496.671,582.222 498.479,583.027 500.181,582.567 C500.847,583.266 503.099,583.142 504.311,582.929 C504.353,583.13 504.146,583.566 504.687,583.295 C504.729,583.093 504.519,582.647 505.062,582.929 L505.062,583.29 C506.686,583.358 508.376,583.682 509.944,583.291 C510.184,584.06 512.256,583.633 512.573,583.291 L512.573,583.653 L518.957,583.653 L518.957,583.291 C519.165,583.331 519.625,583.13 519.332,583.655 C521.392,583.246 524.221,583.502 526.842,583.287 L526.843,582.929 C527.779,583.394 528.853,582.905 529.847,582.931 L529.847,582.567 C530.661,582.141 529.784,583.364 530.598,582.924 L530.598,582.567 C539.997,582.245 549.293,579.606 558.411,576.857 L558.386,576.407 C558.646,576.49 558.88,576.698 559.182,576.572 C560.298,575.978 562.269,575.938 562.517,574.957 C562.849,575.233 563.295,575.135 563.661,575.017 C588.105,565.589 606.355,550.825 620.008,534.394 C620.076,534.19 620.208,533.997 620.11,533.765 C626.584,526.719 632.034,516.853 636.291,507.968 C636.28,507.701 636.366,507.418 636.119,507.196 L636.619,507.232 C637.347,504.446 639.443,501.988 639.499,498.861 L639.967,498.885 C640.544,496.304 642.257,493.712 642.127,490.889 L642.552,490.899 C642.511,489.94 643.404,489.338 642.878,488.353 L643.268,488.355 C643.339,487.391 644.13,486.39 643.63,485.454 C644.367,484.934 644.639,483.274 644.381,482.193 C645.343,481.686 644.996,479.66 645.516,478.57 C645.305,478.527 644.84,478.733 645.132,478.207 L645.533,478.21 L646.63,471.684 C647.432,459.527 647.847,445.734 645.532,433.997 L645.132,433.999 C645.218,433.385 645.616,431.875 644.756,431.824 C645.229,430.362 644.276,429.95 644.423,428.559 L644.005,428.563 C644.444,428.008 644.007,427.351 644.015,426.751 L643.63,426.751 C643.887,426.382 643.927,425.118 643.254,425.302 C643.752,423.868 642.582,422.619 642.559,421.308 L642.127,421.316 C642.538,420.868 642.165,420.348 642.167,419.859 C641.534,419.581 642.044,417.556 641.001,417.692 C641.392,417.245 641.077,416.721 641,416.243 C634.35,395.844 619.602,373.822 602.818,360.668 C587.542,346.794 570.43,338.585 548.321,332.403 C548.931,329.721 548.483,326.933 548.629,324.203 C547.954,319.914 547.441,315.672 546.928,311.865 C546.062,305.437 544.827,299.075 543.249,292.808 C540.473,281.778 536.636,271.042 531.88,260.753 C519.082,233.064 499.633,208.618 476.314,190.416 C477.659,185.538 480.411,180.7 480.653,175.635 L481.079,175.644 L483.291,165.852 C483.081,165.81 482.613,166.015 482.907,165.489 L483.303,165.492 C483.544,163.219 484.411,160.849 484.033,158.604 L484.402,158.604 C485.674,146.414 485.492,134.027 483.305,122.004 L482.907,122.006 C482.947,121.8 482.74,121.355 483.293,121.643 C472.935,65.0624 424.606,20.8332 362.373,16.3818 C359.08,16.4594 355.837,16.1904 352.601,16.3809 C307.064,15.2231 262.41,41.1848 241.284,75.5413 C235.32,83.9186 230.414,94.0912 227.37,104.227 C221.751,119.593 219.868,136.646 221.156,153.17 C221.775,164.525 224.555,175.686 228.124,186.466 C225.402,187.993 223.202,189.97 220.708,191.462 C210.357,199.908 200.717,209.192 193.234,219.011 C188.8,223.755 184.734,229.364 181.577,234.616 C176.897,241.106 172.71,248.152 169.021,255.594 C158.069,277.689 151.509,303.275 149.477,328.19 C149.49,329.709 149.248,331.304 149.74,332.761 C144.413,334.217 139.245,335.953 134.252,337.951 C89.3108,355.931 58.4947,395.117 53.0102,442.337 " style="stroke:none;fill-rule:evenodd;fill:#f7656a;fill-opacity:1;"/>
        </g>
    </g>
    <g id="Layer3">
        <g id="Shape3">
            <desc type="0" basicInfo-basicType="0" basicInfo-roundedRectRadius="12" basicInfo-polygonSides="6" basicInfo-starPoints="5" bounding="rect(0,0,0,0)" text="" font-familyName="" font-pixelSize="20" font-bold="0" font-underline="0" font-alignment="1" strokeStyle="0" markerStart="0" markerEnd="0" shadowEnabled="0" shadowOffsetX="0" shadowOffsetY="2" shadowBlur="4" shadowOpacity="160" blurEnabled="0" blurRadius="4" transform="matrix(0.375521,0,0,0.362361,0,0)" pers-center="0,0" pers-size="0,0" pers-start="0,0" pers-end="0,0" locked="0" mesh="" flag="Trace_1"/>
            <path id="shapePath3" d="M0,0 Z" style="stroke:none;fill-rule:evenodd;fill:#000000;fill-opacity:0;"/>
        </g>
        <g id="Shape4">
            <desc type="0" basicInfo-basicType="0" basicInfo-roundedRectRadius="12" basicInfo-polygonSides="6" basicInfo-starPoints="5" bounding="rect(-1.49019,-0.906508,2.98029,1.81298)" text="" font-familyName="" font-pixelSize="20" font-bold="0" font-underline="0" font-alignment="1" strokeStyle="0" markerStart="0" markerEnd="0" shadowEnabled="0" shadowOffsetX="0" shadowOffsetY="2" shadowBlur="4" shadowOpacity="160" blurEnabled="0" blurRadius="4" transform="matrix(0.375521,0,0,0.362361,455.302,336.65)" pers-center="0,0" pers-size="0,0" pers-start="0,0" pers-end="0,0" locked="0" mesh="" flag="Trace_1"/>
            <path id="shapePath4" d="M454.742,336.523 L455.174,336.637 C456.751,335.491 455.18,337.939 454.742,336.523 Z" style="stroke:none;fill-rule:evenodd;fill:#c7bcb7;fill-opacity:0.996078;"/>
        </g>
        <g id="Shape5">
            <desc type="2" basicInfo-basicType="0" basicInfo-roundedRectRadius="12" basicInfo-polygonSides="6" basicInfo-starPoints="5" bounding="rect(-118.5,-38.5,237,77)" text="BRAINZY" font-familyName="Lantinghei TC" font-pixelSize="85" font-bold="0" font-underline="0" font-alignment="1" strokeStyle="0" markerStart="0" markerEnd="0" shadowEnabled="0" shadowOffsetX="0" shadowOffsetY="2" shadowBlur="4" shadowOpacity="160" blurEnabled="0" blurRadius="4" transform="matrix(1,0,0,1,351.018,323.96)" pers-center="0,0" pers-size="0,0" pers-start="0,0" pers-end="0,0" locked="0" mesh="" flag=""/>
            <path id="shapePath5" d="M183.709,322.554 L163.123,322.554 L163.123,350.776 L185.038,350.776 C196.991,350.776 202.967,345.796 202.967,335.835 C202.303,327.202 195.884,322.775 183.709,322.554 M182.713,293.003 L163.123,293.003 L163.123,318.237 L182.713,318.237 C194.002,318.237 199.758,313.7 199.979,304.624 C199.758,297.098 194.002,293.224 182.713,293.003 M186.034,354.761 L158.475,354.761 L158.475,288.687 L184.373,288.687 C197.433,289.351 204.406,294.663 205.291,304.624 C205.07,313.478 200.311,318.68 191.014,320.23 C202.082,322.222 207.837,327.756 208.28,336.831 C208.058,348.563 200.643,354.539 186.034,354.761 M226.198,293.003 L226.198,320.562 L250.104,320.562 C262.721,320.783 268.919,316.134 268.698,306.616 C268.698,297.541 262.5,293.003 250.104,293.003 L226.198,293.003 M279.323,354.761 L272.35,354.761 L247.78,324.878 L226.198,324.878 L226.198,354.761 L221.217,354.761 L221.217,288.687 L251.764,288.687 C265.931,289.129 273.346,295.216 274.01,306.948 C274.01,318.237 267.259,324.214 253.756,324.878 L279.323,354.761 M296.913,329.194 L326.463,329.194 L311.854,293.999 L311.522,293.999 L296.913,329.194 M337.42,354.761 L328.456,333.511 L295.252,333.511 L285.956,354.761 L280.643,354.761 L308.866,288.355 L314.178,288.355 L343.065,354.761 L337.42,354.761 M351.366,354.761 L356.346,354.761 L356.346,288.687 L351.366,288.687 L351.366,354.761 M377.592,292.339 L416.44,355.093 L424.409,355.093 L424.409,288.687 L419.428,288.687 L419.428,351.772 L419.096,351.772 L379.916,288.687 L371.948,288.687 L371.948,355.093 L377.26,355.093 L377.26,292.339 L377.592,292.339 M485.163,292.007 L485.163,288.687 L437.35,288.687 L437.35,293.003 L478.19,293.003 L433.698,352.105 L433.698,354.761 L486.491,354.761 L486.491,351.108 L440.338,351.108 L485.163,292.007 M549.897,288.687 L521.674,326.538 L521.674,354.761 L516.694,354.761 L516.694,326.538 L489.135,288.687 L494.78,288.687 L519.018,322.886 L544.252,288.687 L549.897,288.687 " style="stroke:none;fill-rule:nonzero;fill:#333333;fill-opacity:1;"/>
        </g>
        <g id="Shape6">
            <desc type="2" basicInfo-basicType="0" basicInfo-roundedRectRadius="12" basicInfo-polygonSides="6" basicInfo-starPoints="5" bounding="rect(-118.5,-38.5,237,77)" text="LIBRARY" font-familyName="Lantinghei TC" font-pixelSize="49" font-bold="0" font-underline="0" font-alignment="1" strokeStyle="0" markerStart="0" markerEnd="0" shadowEnabled="0" shadowOffsetX="0" shadowOffsetY="2" shadowBlur="4" shadowOpacity="160" blurEnabled="0" blurRadius="4" transform="matrix(1,0,0,1,362.143,400.981)" pers-center="0,0" pers-size="0,0" pers-start="0,0" pers-end="0,0" locked="0" mesh="" flag=""/>
            <path id="shapePath6" d="M276.51,418.723 L276.51,416.426 L255.264,416.426 L255.264,380.442 L252.393,380.442 L252.393,418.723 L276.51,418.723 M283.209,418.532 L286.081,418.532 L286.081,380.442 L283.209,380.442 L283.209,418.532 M309.428,399.965 L297.561,399.965 L297.561,416.235 L310.194,416.235 C317.084,416.235 320.53,413.364 320.53,407.622 C320.147,402.645 316.446,400.093 309.428,399.965 M308.854,382.93 L297.561,382.93 L297.561,397.477 L308.854,397.477 C315.362,397.477 318.679,394.861 318.807,389.629 C318.679,385.291 315.362,383.058 308.854,382.93 M310.768,418.532 L294.881,418.532 L294.881,380.442 L309.811,380.442 C317.34,380.825 321.359,383.887 321.87,389.629 C321.742,394.734 318.998,397.732 313.639,398.626 C320.019,399.774 323.337,402.964 323.592,408.196 C323.465,414.959 319.19,418.404 310.768,418.532 M333.916,382.93 L333.916,398.817 L347.698,398.817 C354.971,398.945 358.544,396.265 358.416,390.778 C358.416,385.546 354.844,382.93 347.698,382.93 L333.916,382.93 M364.541,418.532 L360.522,418.532 L346.358,401.305 L333.916,401.305 L333.916,418.532 L331.045,418.532 L331.045,380.442 L348.655,380.442 C356.821,380.697 361.096,384.206 361.479,390.969 C361.479,397.477 357.587,400.922 349.803,401.305 L364.541,418.532 M374.678,403.793 L391.713,403.793 L383.291,383.504 L383.1,383.504 L374.678,403.793 M398.03,418.532 L392.862,406.282 L373.721,406.282 L368.362,418.532 L365.299,418.532 L381.569,380.251 L384.631,380.251 L401.284,418.532 L398.03,418.532 M408.557,382.93 L408.557,398.817 L422.338,398.817 C429.612,398.945 433.185,396.265 433.057,390.778 C433.057,385.546 429.484,382.93 422.338,382.93 L408.557,382.93 M439.182,418.532 L435.163,418.532 L420.998,401.305 L408.557,401.305 L408.557,418.532 L405.686,418.532 L405.686,380.442 L423.295,380.442 C431.462,380.697 435.737,384.206 436.12,390.969 C436.12,397.477 432.228,400.922 424.444,401.305 L439.182,418.532 M475.35,380.442 L459.081,402.262 L459.081,418.532 L456.209,418.532 L456.209,402.262 L440.323,380.442 L443.577,380.442 L457.549,400.157 L472.096,380.442 L475.35,380.442 " style="stroke:none;fill-rule:nonzero;fill:#333333;fill-opacity:1;"/>
        </g>
    </g>
    <g id="Layer4" visibility="hidden">
        <g id="Shape7">
            <desc type="0" basicInfo-basicType="0" basicInfo-roundedRectRadius="12" basicInfo-polygonSides="6" basicInfo-starPoints="5" bounding="rect(-807.972,-799.082,1615.95,1598.16)" text="" font-familyName="" font-pixelSize="20" font-bold="0" font-underline="0" font-alignment="1" strokeStyle="0" markerStart="0" markerEnd="0" shadowEnabled="0" shadowOffsetX="0" shadowOffsetY="2" shadowBlur="4" shadowOpacity="160" blurEnabled="0" blurRadius="4" transform="matrix(0.375521,0,0,0.362361,350,300)" pers-center="0,0" pers-size="0,0" pers-start="0,0" pers-end="0,0" locked="0" mesh="" flag="Trace_1"/>
            <path id="shapePath7" d="M46.7354,447.415 C49.792,395.412 87.5041,349.433 133.296,332.536 C136.316,330.995 140.352,330.254 143.9,328.595 C145.141,302.567 152.161,277.384 163.451,254.567 C177.239,226.703 197.396,202.368 221.173,184.337 C221.409,183.993 221.197,183.605 221.173,183.244 C211.386,154.511 213.232,120.226 225.474,92.3482 C238.6,63.049 261.618,39.5555 288.76,25.9742 C297.77,21.2681 306.106,18.0536 315.799,15.4692 C330.126,11.4043 345.266,9.9747 360.478,10.5757 C412.835,13.1559 458.804,45.8893 478.975,89.0811 C493.101,119.475 495.241,156.084 483.202,187.932 C483.029,188.285 482.968,188.729 483.185,189.082 C506.491,208.232 525.242,232.415 537.726,260.082 C542.137,269.859 545.766,280.071 548.537,290.65 C551.58,302.27 553.588,314.332 554.46,326.747 C554.507,327.417 554.525,328.093 554.974,328.578 C619.204,346.994 662.367,409.484 651.828,476.388 C641.943,535.923 592.184,581.675 531.337,588.55 C485.601,594.395 437.263,574.216 410.391,542.374 C407.105,538.917 404.299,534.986 401.483,531.38 C367.995,539.69 332.135,540.056 298.551,531.66 C296.806,533.086 295.874,535.192 294.264,536.822 C262.941,577.707 204.803,598.972 150.205,585.222 C137.764,582.067 125.916,577.172 114.968,571.17 C69.5145,543.863 44.4278,500.747 46.7354,447.415 M53.0102,442.337 L52.7515,456.103 C51.0024,504.701 83.8743,551.3 124.21,569.684 C132.779,574.396 142.361,577.406 152.074,580.024 C176.696,585.608 204.035,584.886 227.954,576.862 L227.928,576.407 C229.989,576.698 231.957,575.156 233.973,574.716 L233.936,574.232 C234.267,574.495 234.72,574.432 235.08,574.29 C251.56,567.77 268.177,557.039 278.755,545.73 C284.985,540.382 291.082,532.525 295.88,525.659 L295.898,526.023 C300.182,526.596 304.442,527.22 308.664,528.223 C308.708,528.02 308.495,527.568 309.04,527.85 L309.037,528.249 C331.581,532.734 354.148,533.038 377.009,530.38 L377.01,530.024 C378.771,530.456 380.111,529.61 381.891,529.656 L381.891,529.3 C389.243,528.603 396.523,527.113 403.903,525.036 C413.373,539.237 424.72,550.451 437.816,559.791 C438.034,559.846 438.242,559.953 438.48,559.876 C446.474,566.013 454.94,569.928 464.447,574.038 C464.726,574.025 465.023,574.101 465.257,573.87 L465.224,574.34 C469.067,575.492 472.848,577.589 476.898,577.856 L476.883,578.293 C480.628,579.124 484.764,580.795 488.539,580.755 L488.539,581.119 C490.628,581.093 492.51,582.328 494.923,581.842 L494.923,582.202 C496.671,582.222 498.479,583.027 500.181,582.567 C500.847,583.266 503.099,583.142 504.311,582.929 C504.353,583.13 504.146,583.566 504.687,583.295 C504.729,583.093 504.519,582.647 505.062,582.929 L505.062,583.29 C506.686,583.358 508.376,583.682 509.944,583.291 C510.184,584.06 512.256,583.633 512.573,583.291 L512.573,583.653 L518.957,583.653 L518.957,583.291 C519.165,583.331 519.625,583.13 519.332,583.655 C521.392,583.246 524.221,583.502 526.842,583.287 L526.843,582.929 C527.779,583.394 528.853,582.905 529.847,582.931 L529.847,582.567 C530.661,582.141 529.784,583.364 530.598,582.924 L530.598,582.567 C539.997,582.245 549.293,579.606 558.411,576.857 L558.386,576.407 C558.646,576.49 558.88,576.698 559.182,576.572 C560.298,575.978 562.269,575.938 562.517,574.957 C562.849,575.233 563.295,575.135 563.661,575.017 C588.105,565.589 606.355,550.825 620.008,534.394 C620.076,534.19 620.208,533.997 620.11,533.765 C626.584,526.719 632.034,516.853 636.291,507.968 C636.28,507.701 636.366,507.418 636.119,507.196 L636.619,507.232 C637.347,504.446 639.443,501.988 639.499,498.861 L639.967,498.885 C640.544,496.304 642.257,493.712 642.127,490.889 L642.552,490.899 C642.511,489.94 643.404,489.338 642.878,488.353 L643.268,488.355 C643.339,487.391 644.13,486.39 643.63,485.454 C644.367,484.934 644.639,483.274 644.381,482.193 C645.343,481.686 644.996,479.66 645.516,478.57 C645.305,478.527 644.84,478.733 645.132,478.207 L645.533,478.21 L646.63,471.684 C647.432,459.527 647.847,445.734 645.532,433.997 L645.132,433.999 C645.218,433.385 645.616,431.875 644.756,431.824 C645.229,430.362 644.276,429.95 644.423,428.559 L644.005,428.563 C644.444,428.008 644.007,427.351 644.015,426.751 L643.63,426.751 C643.887,426.382 643.927,425.118 643.254,425.302 C643.752,423.868 642.582,422.619 642.559,421.308 L642.127,421.316 C642.538,420.868 642.165,420.348 642.167,419.859 C641.534,419.581 642.044,417.556 641.001,417.692 C641.392,417.245 641.077,416.721 641,416.243 C634.35,395.844 619.602,373.822 602.818,360.668 C587.542,346.794 570.43,338.585 548.321,332.403 C548.931,329.721 548.483,326.933 548.629,324.203 C547.954,319.914 547.441,315.672 546.928,311.865 C546.062,305.437 544.827,299.075 543.249,292.808 C540.473,281.778 536.636,271.042 531.88,260.753 C519.082,233.064 499.633,208.618 476.314,190.416 C477.659,185.538 480.411,180.7 480.653,175.635 L481.079,175.644 L483.291,165.852 C483.081,165.81 482.613,166.015 482.907,165.489 L483.303,165.492 C483.544,163.219 484.411,160.849 484.033,158.604 L484.402,158.604 C485.674,146.414 485.492,134.027 483.305,122.004 L482.907,122.006 C482.947,121.8 482.74,121.355 483.293,121.643 C472.935,65.0624 424.606,20.8332 362.373,16.3818 C359.08,16.4594 355.837,16.1904 352.601,16.3809 C307.064,15.2231 262.41,41.1848 241.284,75.5413 C235.32,83.9186 230.414,94.0912 227.37,104.227 C221.751,119.593 219.868,136.646 221.156,153.17 C221.775,164.525 224.555,175.686 228.124,186.466 C225.402,187.993 223.202,189.97 220.708,191.462 C210.357,199.908 200.717,209.192 193.234,219.011 C188.8,223.755 184.734,229.364 181.577,234.616 C176.897,241.106 172.71,248.152 169.021,255.594 C158.069,277.689 151.509,303.275 149.477,328.19 C149.49,329.709 149.248,331.304 149.74,332.761 C144.413,334.217 139.245,335.953 134.252,337.951 C89.3108,355.931 58.4947,395.117 53.0102,442.337 " style="stroke:none;fill-rule:evenodd;fill:#f7656a;fill-opacity:1;"/>
        </g>
    </g>
    <g id="Layer5">
        <g id="Shape8">
            <desc type="0" basicInfo-basicType="0" basicInfo-roundedRectRadius="12" basicInfo-polygonSides="6" basicInfo-starPoints="5" bounding="rect(-190.37,-127.133,380.739,254.265)" text="" font-familyName="" font-pixelSize="20" font-bold="0" font-underline="0" font-alignment="1" strokeStyle="0" markerStart="0" markerEnd="0" shadowEnabled="0" shadowOffsetX="0" shadowOffsetY="2" shadowBlur="4" shadowOpacity="160" blurEnabled="0" blurRadius="4" transform="matrix(1,0,0,1,349.278,137.49)" pers-center="0,0" pers-size="0,0" pers-start="0,0" pers-end="0,0" locked="0" mesh="" flag="Trace_1"/>
            <path id="shapePath8" d="M158.908,264.198 C176.152,226.456 197.29,202.723 221.358,184.045 C212.449,156.373 213.411,123.596 223.749,96.1518 C248.427,40.6682 299.111,8.00075 363.257,10.4894 C450.233,15.5062 514.314,103.348 483.747,189.134 C497.92,201.297 511.428,215.278 521.078,230.107 C527.508,239.283 534.436,252.714 539.647,264.198 L533.039,263.904 C521.897,236.631 500.926,209.854 476.567,190.601 C508.498,109.914 451.51,23.4171 364.31,16.5718 C340.652,15.3868 315.567,18.3201 295.134,29.533 C240.445,51.3893 204.926,124.816 228.161,186.021 C203.247,204.466 182.834,224.214 165.138,264.622 L158.908,264.198 Z" style="stroke:none;fill-rule:evenodd;fill:#01579b;fill-opacity:1;"/>
        </g>
        <g id="Shape9">
            <desc type="0" basicInfo-basicType="0" basicInfo-roundedRectRadius="12" basicInfo-polygonSides="6" basicInfo-starPoints="5" bounding="rect(-303.585,-128.683,607.17,257.366)" text="" font-familyName="" font-pixelSize="20" font-bold="0" font-underline="0" font-alignment="1" strokeStyle="0" markerStart="0" markerEnd="0" shadowEnabled="0" shadowOffsetX="0" shadowOffsetY="2" shadowBlur="4" shadowOpacity="160" blurEnabled="0" blurRadius="4" transform="matrix(1,0,0,1,350,460.634)" pers-center="0,0" pers-size="0,0" pers-start="0,0" pers-end="0,0" locked="0" mesh="" flag="Trace_1"/>
            <path id="shapePath9" d="M46.5657,445.658 C50.106,403.388 74.4287,368.837 107.288,345.069 C109.503,343.467 124.363,335.146 131.339,333.227 L133.301,338.334 C119.54,343.026 106.08,353.583 99.7956,358.225 C52.6733,393.037 36.8826,467.647 69.624,517.814 C74.3004,527.816 81.9848,536.356 89.7662,544.943 C135.272,594.541 229.877,594.663 273.397,549.997 C282.855,543.523 288.908,533.835 296.156,525.741 C331.539,533.179 368.685,534.06 403.884,524.847 C407.501,528.622 410.321,534.646 414.692,537.93 C456.538,592.049 550.509,596.233 596.353,556.032 C605.976,550.273 611.517,542.805 619.46,534.911 C661.984,484.585 654.46,399.212 603.362,361.228 C595.47,353.114 580.089,343.348 564.135,337.463 L565.482,331.951 C605.425,346.233 636.148,380.935 648.456,419.634 C660.647,459.377 650.339,504.776 625.671,536.352 C618.89,543.472 612.893,551.142 605.157,556.734 C579.551,578.725 543.089,590.97 507.094,589.137 C468.275,586.531 429.507,567.264 406.931,537.731 C404.245,535.955 403.819,531.473 400.055,531.455 C367.07,539.378 332.074,539.549 299.077,531.624 C264.968,577.452 203.44,600.009 146.105,583.958 C82.7489,564.008 43.6673,511.511 46.5657,445.658 Z" style="stroke:none;fill-rule:evenodd;fill:#01579b;fill-opacity:1;"/>
        </g>
    </g>
</svg>
